<?xml version="1.0" standalone="no"?>
<!DOCTYPE svg PUBLIC "-//W3C//DTD SVG 20010904//EN"
 "http://www.w3.org/TR/2001/REC-SVG-20010904/DTD/svg10.dtd">
<svg version="1.0" xmlns="http://www.w3.org/2000/svg"
 width="1280.000000pt" height="1280.000000pt" viewBox="0 0 1280.000000 1280.000000"
 preserveAspectRatio="xMidYMid meet">
<metadata>
Created by potrace 1.16, written by Peter Selinger 2001-2019
</metadata>
<g transform="translate(0.000000,1280.000000) scale(0.100000,-0.100000)"
fill="#000000" stroke="none">
<path d="M0 6400 l0 -6400 6400 0 6400 0 0 6400 0 6400 -6400 0 -6400 0 0
-6400z m6416 4963 c13 -22 147 -253 219 -378 95 -166 247 -428 376 -651 71
-122 129 -224 129 -228 0 -8 -1465 -8 -1473 0 -6 6 8 33 83 159 26 44 102 177
170 295 68 118 169 294 225 390 56 96 135 232 175 303 41 70 77 127 80 127 3
0 10 -8 16 -17z m1071 -1855 c11 -18 38 -64 60 -103 22 -38 71 -124 110 -190
38 -66 106 -183 150 -260 45 -77 146 -252 226 -390 79 -137 196 -340 259 -450
101 -175 169 -293 430 -745 77 -134 433 -750 566 -980 55 -96 113 -197 215
-371 31 -52 59 -103 63 -112 6 -16 -193 -17 -3165 -17 -1744 0 -3171 3 -3171
7 0 6 67 123 155 273 18 30 126 217 240 415 115 198 240 414 278 480 38 66 86
149 107 185 20 36 123 216 230 400 106 184 208 360 225 390 17 30 58 100 90
155 32 55 119 206 193 335 75 129 183 316 240 415 57 99 151 262 209 363 l106
182 673 0 c371 0 674 -2 674 -4 0 -4 -193 -416 -319 -680 -33 -70 -61 -130
-61 -131 0 -2 -29 -63 -64 -136 -68 -143 -198 -419 -251 -534 -18 -38 -62
-132 -99 -208 -36 -76 -66 -140 -66 -141 0 -2 -31 -68 -69 -147 -77 -162 -303
-639 -363 -769 -21 -47 -64 -137 -94 -200 -137 -287 -181 -386 -175 -393 4 -4
581 -6 1282 -5 l1274 3 0 305 0 305 -736 5 -737 5 110 235 c60 129 118 255
130 280 11 25 35 77 53 115 18 39 79 169 135 290 185 400 222 478 300 645 43
91 105 224 138 295 290 627 425 915 428 915 1 0 11 -15 21 -32z m-269 -4082
c35 -18 36 -35 5 -84 -13 -21 -16 -22 -31 -9 -26 23 -96 38 -143 31 -53 -9
-118 -58 -144 -109 -15 -30 -20 -60 -20 -120 0 -95 20 -143 78 -189 48 -38
130 -47 207 -21 28 9 54 14 57 11 3 -3 6 -22 7 -42 1 -35 -1 -38 -49 -55 -116
-41 -229 -16 -317 71 -66 66 -88 124 -88 231 0 137 73 247 196 294 53 20 197
15 242 -9z m-3559 -8 c-6 -13 -69 -124 -140 -248 -70 -124 -129 -231 -131
-239 -2 -11 23 -13 135 -13 l137 0 0 -44 0 -44 -215 0 c-118 0 -215 3 -215 7
0 6 202 366 262 466 15 26 28 52 28 57 0 6 -51 10 -130 10 l-130 0 0 35 0 35
205 0 206 0 -12 -22z m851 -180 c0 -278 13 -316 109 -326 62 -6 96 9 119 53
14 25 17 70 20 253 l4 222 45 0 44 0 -3 -232 c-3 -218 -4 -236 -25 -274 -45
-83 -116 -120 -215 -111 -77 7 -128 40 -159 104 -23 46 -24 59 -27 281 l-3
232 45 0 46 0 0 -202z m1408 176 c71 -35 97 -79 96 -161 0 -50 -6 -70 -28
-103 -15 -22 -38 -46 -51 -52 -14 -6 -25 -15 -25 -21 0 -5 29 -60 65 -122 36
-63 65 -116 65 -120 0 -3 -23 -5 -51 -3 l-51 3 -61 113 -60 112 -44 0 -43 0 0
-115 0 -115 -45 0 -45 0 0 305 0 305 113 0 c101 0 118 -3 165 -26z m2362 -14
l0 -40 -90 0 -90 0 0 -85 0 -85 70 0 70 0 0 -45 0 -45 -70 0 -70 0 0 -90 c0
-65 3 -90 13 -90 6 -1 50 -2 97 -3 l85 -2 3 -42 3 -43 -145 0 -146 0 0 305 0
305 135 0 135 0 0 -40z m1105 13 c98 -53 137 -119 143 -244 6 -111 -13 -180
-67 -241 -63 -71 -120 -91 -273 -96 l-128 -4 0 307 0 307 143 -4 c122 -3 148
-6 182 -25z"/>
<path d="M5732 5253 l3 -118 60 3 c74 3 105 24 124 81 28 88 -28 151 -137 151
l-53 0 3 -117z"/>
<path d="M9150 5140 c0 -169 3 -220 13 -221 47 -5 137 5 165 18 108 51 144
228 69 340 -38 56 -98 82 -189 83 l-58 0 0 -220z"/>
</g>
</svg>
